<?xml version="1.0" encoding="UTF-8" standalone="no"?>
<!-- Created with Inkscape (http://www.inkscape.org/) -->

<svg
   xmlns:dc="http://purl.org/dc/elements/1.1/"
   xmlns:cc="http://creativecommons.org/ns#"
   xmlns:rdf="http://www.w3.org/1999/02/22-rdf-syntax-ns#"
   xmlns:svg="http://www.w3.org/2000/svg"
   xmlns="http://www.w3.org/2000/svg"
   xmlns:xlink="http://www.w3.org/1999/xlink"
   xmlns:sodipodi="http://sodipodi.sourceforge.net/DTD/sodipodi-0.dtd"
   xmlns:inkscape="http://www.inkscape.org/namespaces/inkscape"
   width="64px"
   height="64px"
   id="svg2816"
   version="1.1"
   inkscape:version="0.47 r22583"
   sodipodi:docname="roundabout_exit2.svg"
   inkscape:export-filename="/home/vetter/MoNav/images/directions/roundabout_exit2.png"
   inkscape:export-xdpi="90"
   inkscape:export-ydpi="90">
  <defs
     id="defs2818">
    <linearGradient
       id="linearGradient3741">
      <stop
         id="stop3743"
         offset="0"
         style="stop-color:#ff8080;stop-opacity:1;" />
      <stop
         style="stop-color:#ff8080;stop-opacity:1;"
         offset="0.5"
         id="stop3745" />
      <stop
         id="stop3747"
         offset="1"
         style="stop-color:#ff0000;stop-opacity:1;" />
    </linearGradient>
    <linearGradient
       id="linearGradient3594">
      <stop
         style="stop-color:#80c0ff;stop-opacity:1;"
         offset="0"
         id="stop3596" />
      <stop
         id="stop3602"
         offset="0.5"
         style="stop-color:#80c0ff;stop-opacity:1;" />
      <stop
         style="stop-color:#0080ff;stop-opacity:1;"
         offset="1"
         id="stop3598" />
    </linearGradient>
    <inkscape:perspective
       sodipodi:type="inkscape:persp3d"
       inkscape:vp_x="0 : 32 : 1"
       inkscape:vp_y="0 : 1000 : 0"
       inkscape:vp_z="64 : 32 : 1"
       inkscape:persp3d-origin="32 : 21.333333 : 1"
       id="perspective2824" />
    <inkscape:perspective
       id="perspective2846"
       inkscape:persp3d-origin="0.5 : 0.33333333 : 1"
       inkscape:vp_z="1 : 0.5 : 1"
       inkscape:vp_y="0 : 1000 : 0"
       inkscape:vp_x="0 : 0.5 : 1"
       sodipodi:type="inkscape:persp3d" />
    <radialGradient
       inkscape:collect="always"
       xlink:href="#linearGradient3818"
       id="radialGradient3824"
       cx="32"
       cy="55"
       fx="32"
       fy="55"
       r="14.5"
       gradientTransform="matrix(1,0,0,0.24137931,0,41.724138)"
       gradientUnits="userSpaceOnUse" />
    <linearGradient
       id="linearGradient3818">
      <stop
         style="stop-color:#000000;stop-opacity:0.50196081;"
         offset="0"
         id="stop3820" />
      <stop
         style="stop-color:#000000;stop-opacity:0;"
         offset="1"
         id="stop3822" />
    </linearGradient>
    <radialGradient
       r="14.5"
       fy="55"
       fx="32"
       cy="55"
       cx="32"
       gradientTransform="matrix(1,0,0,0.24137931,0,41.724138)"
       gradientUnits="userSpaceOnUse"
       id="radialGradient2855"
       xlink:href="#linearGradient3818"
       inkscape:collect="always" />
    <radialGradient
       inkscape:collect="always"
       xlink:href="#linearGradient3594"
       id="radialGradient3670"
       gradientUnits="userSpaceOnUse"
       cx="32"
       cy="32"
       fx="32"
       fy="32"
       r="24.5"
       gradientTransform="translate(0,-2)" />
    <inkscape:perspective
       id="perspective2845"
       inkscape:persp3d-origin="0.5 : 0.33333333 : 1"
       inkscape:vp_z="1 : 0.5 : 1"
       inkscape:vp_y="0 : 1000 : 0"
       inkscape:vp_x="0 : 0.5 : 1"
       sodipodi:type="inkscape:persp3d" />
    <linearGradient
       inkscape:collect="always"
       xlink:href="#linearGradient3631"
       id="linearGradient3659"
       gradientUnits="userSpaceOnUse"
       x1="26"
       y1="28"
       x2="18"
       y2="16" />
    <linearGradient
       id="linearGradient3631">
      <stop
         style="stop-color:#ffffff;stop-opacity:0.50196081;"
         offset="0"
         id="stop3633" />
      <stop
         style="stop-color:#ffffff;stop-opacity:0;"
         offset="1"
         id="stop3635" />
    </linearGradient>
    <linearGradient
       y2="16"
       x2="18"
       y1="28"
       x1="26"
       gradientUnits="userSpaceOnUse"
       id="linearGradient2854"
       xlink:href="#linearGradient3631"
       inkscape:collect="always" />
    <radialGradient
       inkscape:collect="always"
       xlink:href="#linearGradient3741"
       id="radialGradient3739"
       cx="32.719902"
       cy="36.553097"
       fx="32.719902"
       fy="36.553097"
       r="8.1009369"
       gradientTransform="matrix(1.728,0,0,2.8150741,-24.456451,-54.363528)"
       gradientUnits="userSpaceOnUse" />
    <inkscape:perspective
       id="perspective3767"
       inkscape:persp3d-origin="0.5 : 0.33333333 : 1"
       inkscape:vp_z="1 : 0.5 : 1"
       inkscape:vp_y="0 : 1000 : 0"
       inkscape:vp_x="0 : 0.5 : 1"
       sodipodi:type="inkscape:persp3d" />
    <linearGradient
       inkscape:collect="always"
       xlink:href="#linearGradient3631"
       id="linearGradient2853"
       gradientUnits="userSpaceOnUse"
       x1="26"
       y1="28"
       x2="18"
       y2="16"
       gradientTransform="matrix(2,0,0,1.3333333,-28,-7.3333331)" />
    <linearGradient
       inkscape:collect="always"
       xlink:href="#linearGradient3631"
       id="linearGradient3768"
       gradientUnits="userSpaceOnUse"
       x1="26"
       y1="28"
       x2="18"
       y2="16"
       gradientTransform="matrix(2,0,0,1.3333333,-28,-7.3333331)" />
  </defs>
  <sodipodi:namedview
     id="base"
     pagecolor="#ffffff"
     bordercolor="#666666"
     borderopacity="1.0"
     inkscape:pageopacity="0.0"
     inkscape:pageshadow="2"
     inkscape:zoom="11"
     inkscape:cx="6.1730225"
     inkscape:cy="34.437818"
     inkscape:current-layer="layer1"
     showgrid="true"
     inkscape:document-units="px"
     inkscape:grid-bbox="true"
     inkscape:window-width="1680"
     inkscape:window-height="995"
     inkscape:window-x="0"
     inkscape:window-y="0"
     inkscape:window-maximized="1"
     inkscape:snap-grids="false">
    <inkscape:grid
       type="xygrid"
       id="grid2826"
       empspacing="5"
       visible="true"
       enabled="true"
       snapvisiblegridlinesonly="true"
       spacingx="2px"
       spacingy="2px" />
  </sodipodi:namedview>
  <metadata
     id="metadata2821">
    <rdf:RDF>
      <cc:Work
         rdf:about="">
        <dc:format>image/svg+xml</dc:format>
        <dc:type
           rdf:resource="http://purl.org/dc/dcmitype/StillImage" />
        <dc:title></dc:title>
      </cc:Work>
    </rdf:RDF>
  </metadata>
  <g
     id="layer1"
     inkscape:label="Layer 1"
     inkscape:groupmode="layer">
    <path
       sodipodi:type="arc"
       style="fill:url(#radialGradient2855);fill-opacity:1;stroke:none"
       id="path3816"
       sodipodi:cx="32"
       sodipodi:cy="55"
       sodipodi:rx="14"
       sodipodi:ry="3"
       d="m 46,55 a 14,3 0 1 1 -28,0 14,3 0 1 1 28,0 z"
       transform="matrix(1.2857141,0,0,1.3333333,-9.1428512,-15.333331)" />
    <path
       style="fill:url(#radialGradient3670);fill-opacity:1;stroke:none;stroke-opacity:1"
       d="m 24,2 0,5.375 C 17.183306,9.785465 11.785465,15.183306 9.375,22 L 4,22 4,38 9.375,38 C 11.785465,44.816694 17.183306,50.214535 24,52.625 L 24,58 40,58 40,52.625 C 46.816694,50.214535 52.214535,44.816694 54.625,38 L 60,38 60,22 54.625,22 C 52.214535,15.183306 46.816694,9.785465 40,7.375 L 40,2 24,2 z m 8,12 c 8.836556,0 16,7.163444 16,16 0,8.836556 -7.163444,16 -16,16 -8.836556,0 -16,-7.163444 -16,-16 0,-8.836556 7.163444,-16 16,-16 z"
       id="path3624" />
    <text
       id="text3749"
       y="42.398064"
       x="21.422089"
       style="font-size:34.55999755999999934px;font-style:normal;font-weight:normal;fill:none;fill-opacity:1;stroke:none;stroke-width:1.20000005000000010;stroke-opacity:1;font-family:Bitstream Vera Sans"
       xml:space="preserve"><tspan
         style="stroke-width:1.20000005000000010;fill-opacity:1;fill:none;stroke:none"
         y="42.398064"
         x="21.422089"
         id="tspan3751"
         sodipodi:role="line">1</tspan></text>
    <path
       style="fill:url(#linearGradient2853);fill-opacity:1;fill-rule:evenodd;stroke:none"
       d="M 24 2 L 24 7.375 C 17.183306 9.785465 11.785465 15.183306 9.375 22 L 4 22 L 4 26.46875 C 7.4884338 27.869383 11.566654 28.926988 16.03125 29.5 C 16.299549 20.898547 23.333425 14 32 14 C 39.085296 14 45.083765 18.619347 47.1875 25 C 49.977475 23.53016 52.231313 21.791141 53.75 19.875 C 51.043991 14.068402 46.092037 9.5292175 40 7.375 L 40 2 L 24 2 z "
       id="path2849" />
    <path
       id="path3691"
       d="m 24,2 0,5.375 C 17.183306,9.785465 11.785465,15.183306 9.375,22 L 4,22 4,38 9.375,38 C 11.785465,44.816694 17.183306,50.214535 24,52.625 L 24,58 40,58 40,52.625 C 46.816694,50.214535 52.214535,44.816694 54.625,38 L 60,38 60,22 54.625,22 C 52.214535,15.183306 46.816694,9.785465 40,7.375 L 40,2 24,2 z m 8,12 c 8.836556,0 16,7.163444 16,16 0,8.836556 -7.163444,16 -16,16 -8.836556,0 -16,-7.163444 -16,-16 0,-8.836556 7.163444,-16 16,-16 z"
       style="fill:none;fill-opacity:1;stroke:#00007d;stroke-opacity:1" />
    <text
       xml:space="preserve"
       style="font-size:59.71967316px;font-style:normal;font-weight:normal;fill:url(#radialGradient3739);fill-opacity:1;stroke:none;font-family:Bitstream Vera Sans"
       x="12.560918"
       y="51.296085"
       id="text3729"><tspan
         sodipodi:role="line"
         id="tspan3731"
         x="12.560918"
         y="51.296085"
         style="fill:url(#radialGradient3739);fill-opacity:1;stroke:none">3</tspan></text>
    <path
       style="fill:url(#linearGradient3768);fill-opacity:1;fill-rule:evenodd;stroke:none"
       d="M 30.21875 6.96875 C 28.488574 6.9687943 26.650926 7.1265042 24.6875 7.4375 C 22.74349 7.7485835 20.673092 8.2217132 18.4375 8.84375 L 18.4375 14.09375 C 20.653652 13.355068 22.68444 12.818708 24.53125 12.46875 C 26.378036 12.118869 28.105215 11.937539 29.71875 11.9375 C 32.67361 11.937539 34.925338 12.544759 36.5 13.75 C 38.094054 14.935876 38.906224 16.639435 38.90625 18.875 C 38.906224 21.05231 38.129484 22.708629 36.59375 23.875 C 35.057968 25.021986 32.834039 25.593776 29.9375 25.59375 L 24.625 25.59375 L 24.625 29.96875 C 29.56676 29.921028 34.225407 29.327503 38.375 28.28125 C 37.866102 28.111076 37.338828 27.931712 36.78125 27.8125 C 39.327863 27.171004 41.307231 26.027425 42.6875 24.375 C 44.067708 22.703189 44.749968 20.66059 44.75 18.25 C 44.749968 14.789717 43.448679 12.053049 40.84375 10.03125 C 38.238765 7.9900935 34.689927 6.9687943 30.21875 6.96875 z "
       id="path3613" />
    <text
       id="text3771"
       y="51.296085"
       x="12.560918"
       style="font-size:59.71967315999999926px;font-style:normal;font-weight:normal;fill:none;fill-opacity:1;stroke:#800000;font-family:Bitstream Vera Sans;stroke-opacity:1"
       xml:space="preserve"><tspan
         style="fill:none;fill-opacity:1;stroke:#800000;stroke-opacity:1"
         y="51.296085"
         x="12.560918"
         id="tspan3773"
         sodipodi:role="line">3</tspan></text>
  </g>
</svg>
