<?xml version="1.0" encoding="UTF-8" standalone="no"?>
<!-- Created with Inkscape (http://www.inkscape.org/) -->

<svg
   xmlns:dc="http://purl.org/dc/elements/1.1/"
   xmlns:cc="http://creativecommons.org/ns#"
   xmlns:rdf="http://www.w3.org/1999/02/22-rdf-syntax-ns#"
   xmlns:svg="http://www.w3.org/2000/svg"
   xmlns="http://www.w3.org/2000/svg"
   xmlns:sodipodi="http://sodipodi.sourceforge.net/DTD/sodipodi-0.dtd"
   xmlns:inkscape="http://www.inkscape.org/namespaces/inkscape"
   inkscape:version="0.47 r22583"
   version="1.1"
   id="svg2816"
   height="64px"
   width="64px"
   sodipodi:docname="New document 2">
  <defs
     id="defs2818">
    <inkscape:perspective
       sodipodi:type="inkscape:persp3d"
       inkscape:vp_x="0 : 32 : 1"
       inkscape:vp_y="0 : 1000 : 0"
       inkscape:vp_z="64 : 32 : 1"
       inkscape:persp3d-origin="32 : 21.333333 : 1"
       id="perspective2824" />
    <inkscape:perspective
       id="perspective2826"
       inkscape:persp3d-origin="0.5 : 0.33333333 : 1"
       inkscape:vp_z="1 : 0.5 : 1"
       inkscape:vp_y="0 : 1000 : 0"
       inkscape:vp_x="0 : 0.5 : 1"
       sodipodi:type="inkscape:persp3d" />
    <clipPath
       clipPathUnits="userSpaceOnUse"
       id="clipPath3769">
      <rect
         style="fill:none;stroke:#000000;stroke-width:1.0119859;stroke-miterlimit:4;stroke-opacity:1;stroke-dasharray:none;stroke-dashoffset:0"
         id="rect3771"
         width="65.517471"
         height="64"
         x="62.482529"
         y="0.12856486" />
    </clipPath>
  </defs>
  <sodipodi:namedview
     id="base"
     pagecolor="#ffffff"
     bordercolor="#666666"
     borderopacity="1.0"
     inkscape:pageopacity="0.0"
     inkscape:pageshadow="2"
     inkscape:zoom="7.7781746"
     inkscape:cx="74.841284"
     inkscape:cy="39.402558"
     inkscape:current-layer="layer1"
     showgrid="true"
     inkscape:document-units="px"
     inkscape:grid-bbox="true"
     inkscape:window-width="1680"
     inkscape:window-height="995"
     inkscape:window-x="0"
     inkscape:window-y="0"
     inkscape:window-maximized="1"
     inkscape:snap-grids="false"
     inkscape:object-paths="true">
    <inkscape:grid
       empspacing="5"
       visible="true"
       enabled="true"
       snapvisiblegridlinesonly="true"
       spacingx="2px"
       spacingy="2px"
       type="xygrid"
       id="grid2826" />
  </sodipodi:namedview>
  <metadata
     id="metadata2821">
    <rdf:RDF>
      <cc:Work
         rdf:about="">
        <dc:format>image/svg+xml</dc:format>
        <dc:type
           rdf:resource="http://purl.org/dc/dcmitype/StillImage" />
        <dc:title></dc:title>
      </cc:Work>
    </rdf:RDF>
  </metadata>
  <g
     id="layer1"
     inkscape:label="Layer 1"
     inkscape:groupmode="layer">
    <g
       id="g3688"
       clip-path="url(#clipPath3769)"
       transform="translate(-62.482526,-0.12856487)">
      <path
         style="fill:#faffb9;fill-opacity:1;stroke:#a0a0a0;stroke-width:1;stroke-miterlimit:4;stroke-opacity:1;stroke-dasharray:1, 1;stroke-dashoffset:0"
         d="m 61.968266,0 70.453544,0 0,66.442734 -70.453544,0 0,-66.442734 z"
         id="rect3684" />
      <path
         id="path3660"
         d="m 81.381562,27.230447 c -0.128565,1.285649 0.51426,6.042549 0.51426,6.042549 l -2.185603,0 2.956992,3.728381 2.699862,-3.728381 -2.057038,0 -0.257129,-5.913984 -1.671344,-0.128565 z"
         style="fill:#0000ff;fill-opacity:1;stroke:#0000fa;stroke-width:1px;stroke-linecap:butt;stroke-linejoin:miter;stroke-opacity:1" />
      <path
         id="path3662"
         d="M 91.666752,64 89.095454,22.087853 96.037957,21.959288 97.96643,64 91.666752,64 z"
         style="fill:#00a102;fill-opacity:1;stroke:#b3b3b3;stroke-width:1px;stroke-linecap:butt;stroke-linejoin:miter;stroke-opacity:1" />
      <path
         id="path3664"
         d="m 128,22.087853 -18.07704,0 L 112.23713,64 128,64 128,22.087853 z"
         style="fill:#dba700;fill-opacity:1;stroke:#909090;stroke-width:1px;stroke-linecap:butt;stroke-linejoin:miter;stroke-opacity:1" />
      <path
         id="path3666"
         d="m 64.15387,22.473547 10.799449,0 L 77.524616,64 64.411,64 64.15387,22.473547 z"
         style="fill:#90ff95;fill-opacity:1;stroke:#a0a0a0;stroke-width:1px;stroke-linecap:butt;stroke-linejoin:miter;stroke-opacity:1" />
      <path
         id="path3658"
         d="M 67.496556,22.344982 C 67.625121,22.473547 69.810724,64 69.810724,64"
         style="fill:none;stroke:#860000;stroke-width:1;stroke-linecap:butt;stroke-linejoin:miter;stroke-miterlimit:4;stroke-opacity:1;stroke-dasharray:1, 1;stroke-dashoffset:0" />
      <path
         id="path3668"
         d="m 64.025305,0 0,8.2028467 L 128,7.8171521 128,0 64.025305,0 z"
         style="fill:#90ff95;fill-opacity:1;stroke:#000000;stroke-width:1px;stroke-linecap:butt;stroke-linejoin:miter;stroke-opacity:1" />
      <path
         id="path3646"
         d="m 74.310494,0 0.38656,7.859613"
         style="fill:none;stroke:#005e00;stroke-width:1px;stroke-linecap:butt;stroke-linejoin:miter;stroke-opacity:1" />
      <path
         id="path3648"
         d="M 81.767257,8.4599764 84.209989,2.8031222 89.095454,0"
         style="fill:none;stroke:#8e0000;stroke-width:1;stroke-linecap:butt;stroke-linejoin:miter;stroke-miterlimit:4;stroke-opacity:1;stroke-dasharray:1, 1;stroke-dashoffset:0" />
      <g
         style="font-size:10px;font-style:normal;font-weight:normal;fill:#000000;fill-opacity:1;stroke:none;font-family:Bitstream Vera Sans"
         id="text3670">
        <path
           d="m 38.136692,11.84082 0.986328,0 0,2.988282 3.583985,0 0,-2.988282 0.986328,0 0,7.290039 -0.986328,0 0,-3.471679 -3.583985,0 0,3.471679 -0.986328,0 0,-7.290039"
           id="path3707" />
        <path
           d="m 48.102512,16.381836 c -0.725914,3e-6 -1.228843,0.08301 -1.508789,0.249023 -0.279949,0.166018 -0.419923,0.449221 -0.419922,0.84961 -10e-7,0.319011 0.104165,0.572917 0.3125,0.761718 0.211587,0.185548 0.498045,0.278321 0.859375,0.278321 0.498044,0 0.896807,-0.175781 1.196289,-0.527344 0.302731,-0.354816 0.454098,-0.825193 0.454102,-1.411133 l 0,-0.200195 -0.893555,0 m 1.791993,-0.371094 0,3.120117 -0.898438,0 0,-0.830078 c -0.205082,0.332032 -0.460616,0.5778 -0.766602,0.737305 -0.305992,0.15625 -0.680341,0.234375 -1.123046,0.234375 -0.559898,0 -1.005861,-0.15625 -1.337891,-0.46875 -0.328777,-0.315755 -0.493165,-0.737304 -0.493164,-1.264649 -1e-6,-0.615232 0.205077,-1.079098 0.615234,-1.391601 0.41341,-0.312497 1.028644,-0.468747 1.845703,-0.46875 l 1.259766,0 0,-0.08789 c -4e-6,-0.413407 -0.136723,-0.732417 -0.410156,-0.957031 -0.270186,-0.22786 -0.651045,-0.341792 -1.142578,-0.341797 -0.312503,5e-6 -0.616864,0.03744 -0.913086,0.112305 -0.296226,0.07487 -0.581056,0.187179 -0.854492,0.336914 l 0,-0.830078 c 0.328774,-0.126948 0.647784,-0.221349 0.957031,-0.283203 0.309242,-0.0651 0.610349,-0.09765 0.90332,-0.09766 0.791012,6e-6 1.381832,0.205084 1.772461,0.615235 0.39062,0.410161 0.585932,1.031905 0.585938,1.865234 m -1.860352,-4.458008 0.991211,0 0,0.986329 -0.991211,0 0,-0.986329 m -1.90918,0 0.991211,0 0,0.986329 -0.991211,0 0,-0.986329"
           id="path3709" />
        <path
           d="m 55.348606,14.492188 0,-2.958985 0.898438,0 0,7.597656 -0.898438,0 0,-0.820312 c -0.188806,0.325521 -0.428064,0.568034 -0.717773,0.727539 -0.286462,0.15625 -0.631514,0.234375 -1.035157,0.234375 -0.660809,0 -1.199545,-0.263672 -1.616211,-0.791016 -0.413412,-0.527342 -0.620117,-1.220701 -0.620117,-2.080078 0,-0.859371 0.206705,-1.55273 0.620117,-2.080078 0.416666,-0.527338 0.955402,-0.79101 1.616211,-0.791016 0.403643,6e-6 0.748695,0.07976 1.035157,0.239258 0.289709,0.156255 0.528967,0.397141 0.717773,0.722657 m -3.061523,1.909179 c -2e-6,0.66081 0.135089,1.180015 0.405273,1.557617 0.273435,0.37435 0.647784,0.561524 1.123047,0.561524 0.475257,0 0.849606,-0.187174 1.123047,-0.561524 0.273433,-0.377602 0.410152,-0.896807 0.410156,-1.557617 -4e-6,-0.660804 -0.136723,-1.178381 -0.410156,-1.552734 -0.273441,-0.3776 -0.64779,-0.566402 -1.123047,-0.566406 -0.475263,4e-6 -0.849612,0.188806 -1.123047,0.566406 -0.270184,0.374353 -0.405275,0.89193 -0.405273,1.552734"
           id="path3711" />
        <path
           d="m 62.775364,16.171875 0,0.439453 -4.130859,0 c 0.03906,0.618492 0.224607,1.090496 0.55664,1.416016 0.335284,0.322266 0.800779,0.483399 1.396485,0.483398 0.345048,1e-6 0.678706,-0.04232 1.000976,-0.126953 0.325516,-0.08463 0.647781,-0.211588 0.966797,-0.380859 l 0,0.849609 c -0.322271,0.136719 -0.652674,0.240886 -0.991211,0.3125 -0.338546,0.07162 -0.68197,0.107422 -1.030273,0.107422 -0.872399,0 -1.56413,-0.253906 -2.075196,-0.761719 -0.507813,-0.507811 -0.761719,-1.194659 -0.761718,-2.060547 -1e-6,-0.895178 0.240884,-1.604813 0.722656,-2.128906 0.485024,-0.527338 1.137693,-0.79101 1.958008,-0.791016 0.735673,6e-6 1.316727,0.237636 1.743164,0.712891 0.429682,0.47201 0.644525,1.114913 0.644531,1.928711 m -0.898438,-0.263672 c -0.0065,-0.491533 -0.144861,-0.883785 -0.415039,-1.176758 -0.266931,-0.292964 -0.621748,-0.439448 -1.064453,-0.439453 -0.501305,5e-6 -0.903322,0.141606 -1.206054,0.424805 -0.299481,0.283207 -0.472007,0.68197 -0.517579,1.196289 l 3.203125,-0.0049"
           id="path3713" />
        <path
           d="m 67.418919,14.501953 c -0.100916,-0.05859 -0.211593,-0.100907 -0.332032,-0.126953 -0.117191,-0.02929 -0.247399,-0.04394 -0.390625,-0.04395 -0.507815,4e-6 -0.89844,0.16602 -1.171875,0.498047 -0.270184,0.32878 -0.405275,0.802412 -0.405273,1.420898 l 0,2.880859 -0.90332,0 0,-5.46875 0.90332,0 0,0.84961 c 0.1888,-0.332027 0.434568,-0.577795 0.737305,-0.737305 0.302731,-0.162755 0.670569,-0.244135 1.103515,-0.244141 0.06184,6e-6 0.130205,0.0049 0.205078,0.01465 0.07487,0.0065 0.157874,0.01791 0.249024,0.03418 l 0.0049,0.922851"
           id="path3715" />
        <path
           d="m 68.371067,11.533203 0.898438,0 0,7.597656 -0.898438,0 0,-7.597656"
           id="path3717" />
        <path
           d="m 71.144505,13.662109 0.898437,0 0,5.46875 -0.898437,0 0,-5.46875 m 0,-2.128906 0.898437,0 0,1.137695 -0.898437,0 0,-1.137695"
           id="path3719" />
        <path
           d="m 78.46384,15.830078 0,3.300781 -0.898437,0 0,-3.271484 c -5e-6,-0.517574 -0.100916,-0.904944 -0.302734,-1.162109 -0.201827,-0.257157 -0.504561,-0.385738 -0.908204,-0.385743 -0.485028,5e-6 -0.867515,0.154627 -1.14746,0.463868 -0.27995,0.309248 -0.419924,0.730798 -0.419922,1.264648 l 0,3.09082 -0.903321,0 0,-5.46875 0.903321,0 0,0.84961 c 0.214841,-0.328771 0.46712,-0.574539 0.756836,-0.737305 0.292965,-0.162755 0.629879,-0.244135 1.010742,-0.244141 0.628251,6e-6 1.103511,0.195318 1.425781,0.585938 0.32226,0.387374 0.483393,0.958663 0.483398,1.713867"
           id="path3721" />
        <path
           d="m 83.751926,13.823242 0,0.84961 c -0.25391,-0.130204 -0.517582,-0.22786 -0.791015,-0.292969 -0.273441,-0.0651 -0.556644,-0.09765 -0.84961,-0.09766 -0.445965,4e-6 -0.781252,0.06836 -1.005859,0.205078 -0.221356,0.136723 -0.332033,0.341801 -0.332031,0.615234 -2e-6,0.208337 0.07975,0.372725 0.239258,0.493164 0.159503,0.117191 0.480141,0.229496 0.961914,0.336914 l 0.307617,0.06836 c 0.638017,0.136721 1.090491,0.330406 1.357422,0.581054 0.270177,0.247398 0.405268,0.594078 0.405273,1.040039 -5e-6,0.507814 -0.201827,0.909832 -0.605469,1.206055 -0.400394,0.296224 -0.952151,0.444336 -1.655273,0.444336 -0.292971,0 -0.59896,-0.0293 -0.917969,-0.08789 -0.315756,-0.05534 -0.649415,-0.139974 -1.000976,-0.253906 l 0,-0.927734 c 0.33203,0.172527 0.659178,0.302735 0.981445,0.390625 0.322264,0.08464 0.641274,0.126953 0.957031,0.126953 0.423174,0 0.748695,-0.07161 0.976563,-0.214844 0.227861,-0.146483 0.341793,-0.351561 0.341797,-0.615234 -4e-6,-0.244139 -0.08301,-0.431314 -0.249024,-0.561524 C 82.710256,16.9987 82.350556,16.873375 81.793919,16.75293 l -0.3125,-0.07324 c -0.556643,-0.117184 -0.95866,-0.296221 -1.206055,-0.537109 -0.247397,-0.244137 -0.371094,-0.577796 -0.371094,-1.000976 0,-0.514319 0.182291,-0.911454 0.546875,-1.191407 0.364582,-0.279942 0.88216,-0.419916 1.552735,-0.419922 0.332028,6e-6 0.644527,0.02442 0.9375,0.07324 0.292964,0.04883 0.563146,0.122075 0.810546,0.219726"
           id="path3723" />
        <path
           d="m 86.369114,12.109375 0,1.552734 1.850586,0 0,0.698243 -1.850586,0 0,2.96875 c -2e-6,0.445964 0.06022,0.732423 0.180664,0.859375 0.123696,0.126954 0.372719,0.19043 0.74707,0.190429 l 0.922852,0 0,0.751953 -0.922852,0 c -0.693361,0 -1.171876,-0.12858 -1.435547,-0.385742 -0.263673,-0.260416 -0.395508,-0.732421 -0.395507,-1.416015 l 0,-2.96875 -0.65918,0 0,-0.698243 0.65918,0 0,-1.552734 0.90332,0"
           id="path3725" />
        <path
           d="m 92.575169,14.501953 c -0.100916,-0.05859 -0.211593,-0.100907 -0.332032,-0.126953 -0.117191,-0.02929 -0.247399,-0.04394 -0.390625,-0.04395 -0.507815,4e-6 -0.89844,0.16602 -1.171875,0.498047 -0.270184,0.32878 -0.405275,0.802412 -0.405273,1.420898 l 0,2.880859 -0.90332,0 0,-5.46875 0.90332,0 0,0.84961 c 0.1888,-0.332027 0.434568,-0.577795 0.737305,-0.737305 0.302731,-0.162755 0.670569,-0.244135 1.103515,-0.244141 0.06184,6e-6 0.130205,0.0049 0.205078,0.01465 0.07487,0.0065 0.157874,0.01791 0.249024,0.03418 l 0.0049,0.922851"
           id="path3727" />
        <path
           d="m 96.012669,16.381836 c -0.725915,3e-6 -1.228844,0.08301 -1.508789,0.249023 -0.27995,0.166018 -0.419924,0.449221 -0.419922,0.84961 -2e-6,0.319011 0.104165,0.572917 0.3125,0.761718 0.211586,0.185548 0.498044,0.278321 0.859375,0.278321 0.498043,0 0.896806,-0.175781 1.196289,-0.527344 0.30273,-0.354816 0.454097,-0.825193 0.454101,-1.411133 l 0,-0.200195 -0.893554,0 m 1.791992,-0.371094 0,3.120117 -0.898438,0 0,-0.830078 c -0.205082,0.332032 -0.460616,0.5778 -0.766601,0.737305 -0.305993,0.15625 -0.680342,0.234375 -1.123047,0.234375 -0.559898,0 -1.005861,-0.15625 -1.337891,-0.46875 -0.328777,-0.315755 -0.493164,-0.737304 -0.493164,-1.264649 0,-0.615232 0.205077,-1.079098 0.615235,-1.391601 0.413409,-0.312497 1.028643,-0.468747 1.845703,-0.46875 l 1.259765,0 0,-0.08789 c -4e-6,-0.413407 -0.136723,-0.732417 -0.410156,-0.957031 -0.270186,-0.22786 -0.651045,-0.341792 -1.142578,-0.341797 -0.312503,5e-6 -0.616864,0.03744 -0.913086,0.112305 -0.296226,0.07487 -0.581056,0.187179 -0.854492,0.336914 l 0,-0.830078 c 0.328775,-0.126948 0.647785,-0.221349 0.957031,-0.283203 0.309243,-0.0651 0.610349,-0.09765 0.90332,-0.09766 0.791012,6e-6 1.381832,0.205084 1.772461,0.615235 0.39062,0.410161 0.585933,1.031905 0.585938,1.865234"
           id="path3729" />
        <path
           d="m 99.62595,13.579102 c -10e-7,-0.651036 0.193684,-1.153965 0.58105,-1.508789 0.39063,-0.358066 0.94076,-0.537102 1.6504,-0.53711 0.67707,8e-6 1.19302,0.18881 1.54785,0.566406 0.35806,0.377611 0.54198,0.930996 0.55175,1.660157 -0.49154,0.02605 -0.87402,0.133468 -1.14746,0.322265 -0.27344,0.185552 -0.41016,0.434575 -0.41015,0.747071 -1e-5,0.152999 0.0472,0.296228 0.1416,0.429687 0.0944,0.130212 0.24739,0.263676 0.45898,0.400391 l 0.27832,0.180664 c 0.54036,0.345055 0.88867,0.63314 1.04493,0.864258 0.15624,0.231122 0.23436,0.509442 0.23437,0.83496 -1e-5,0.559897 -0.18392,0.989584 -0.55176,1.289063 -0.36459,0.296224 -0.8903,0.444336 -1.57715,0.444336 -0.20833,0 -0.42318,-0.02116 -0.64453,-0.06348 -0.22135,-0.03906 -0.45085,-0.09766 -0.68847,-0.175781 l 0,-0.800781 c 0.26041,0.09766 0.50455,0.170899 0.73242,0.219726 0.22786,0.04557 0.44759,0.06836 0.65918,0.06836 0.3776,0 0.66406,-0.0765 0.85937,-0.229492 0.19531,-0.156249 0.29297,-0.382486 0.29297,-0.678711 0,-0.205077 -0.0488,-0.375975 -0.14648,-0.512696 -0.0944,-0.136716 -0.306,-0.305987 -0.63477,-0.507812 l -0.44922,-0.268555 c -0.3125,-0.192054 -0.54036,-0.397132 -0.68359,-0.615234 -0.13998,-0.221351 -0.20996,-0.48014 -0.20996,-0.776367 0,-0.413407 0.13509,-0.760087 0.40527,-1.040039 0.27344,-0.279943 0.65592,-0.467117 1.14746,-0.561524 -0.026,-0.33528 -0.14649,-0.594069 -0.36133,-0.776367 -0.21159,-0.182285 -0.5013,-0.273431 -0.86914,-0.273438 -0.42318,7e-6 -0.74544,0.113939 -0.96679,0.341797 -0.22136,0.224616 -0.33204,0.550136 -0.33203,0.976563 l 0,5.532226 -0.91309,0 0,-5.551757"
           id="path3731" />
        <path
           d="m 110.64646,16.171875 0,0.439453 -4.13086,0 c 0.0391,0.618492 0.22461,1.090496 0.55664,1.416016 0.33528,0.322266 0.80078,0.483399 1.39648,0.483398 0.34505,1e-6 0.67871,-0.04232 1.00098,-0.126953 0.32552,-0.08463 0.64778,-0.211588 0.9668,-0.380859 l 0,0.849609 c -0.32227,0.136719 -0.65268,0.240886 -0.99121,0.3125 -0.33855,0.07162 -0.68197,0.107422 -1.03028,0.107422 -0.8724,0 -1.56413,-0.253906 -2.07519,-0.761719 -0.50782,-0.507811 -0.76172,-1.194659 -0.76172,-2.060547 0,-0.895178 0.24088,-1.604813 0.72265,-2.128906 0.48503,-0.527338 1.1377,-0.79101 1.95801,-0.791016 0.73568,6e-6 1.31673,0.237636 1.74317,0.712891 0.42968,0.47201 0.64452,1.114913 0.64453,1.928711 m -0.89844,-0.263672 c -0.007,-0.491533 -0.14486,-0.883785 -0.41504,-1.176758 -0.26693,-0.292964 -0.62175,-0.439448 -1.06445,-0.439453 -0.50131,5e-6 -0.90332,0.141606 -1.20606,0.424805 -0.29948,0.283207 -0.472,0.68197 -0.51757,1.196289 l 3.20312,-0.0049"
           id="path3733" />
      </g>
      <g
         transform="matrix(0,1,-1,0,0,0)"
         style="font-size:10px;font-style:normal;font-weight:normal;fill:#000000;fill-opacity:1;stroke:none;font-family:Bitstream Vera Sans"
         id="text3674">
        <path
           d="m 48.497898,-108.8674 0.986328,0 0,2.98828 3.583985,0 0,-2.98828 0.986328,0 0,7.29004 -0.986328,0 0,-3.47168 -3.583985,0 0,3.47168 -0.986328,0 0,-7.29004"
           id="path3736" />
        <path
           d="m 58.097507,-106.41623 c -0.481773,1e-5 -0.862632,0.18881 -1.142578,0.56641 -0.279949,0.37435 -0.419923,0.88867 -0.419922,1.54297 -10e-7,0.65429 0.138345,1.17024 0.41504,1.54785 0.279945,0.37435 0.662432,0.56152 1.14746,0.56152 0.478513,0 0.857744,-0.1888 1.137696,-0.56641 0.279943,-0.3776 0.419917,-0.89192 0.419922,-1.54296 -5e-6,-0.64779 -0.139979,-1.16048 -0.419922,-1.53809 -0.279952,-0.38085 -0.659183,-0.57128 -1.137696,-0.57129 m 0,-0.76172 c 0.781247,10e-6 1.394853,0.25391 1.840821,0.76172 0.445958,0.50782 0.66894,1.21094 0.668945,2.10938 -5e-6,0.89518 -0.222987,1.5983 -0.668945,2.10937 -0.445968,0.50781 -1.059574,0.76172 -1.840821,0.76172 -0.784507,0 -1.399741,-0.25391 -1.845703,-0.76172 -0.442709,-0.51107 -0.664063,-1.21419 -0.664062,-2.10937 -10e-7,-0.89844 0.221353,-1.60156 0.664062,-2.10938 0.445962,-0.50781 1.061196,-0.76171 1.845703,-0.76172 m 0.458985,-1.97754 0.991211,0 0,0.98633 -0.991211,0 0,-0.98633 m -1.90918,0 0.991211,0 0,0.98633 -0.991211,0 0,-0.98633"
           id="path3738" />
        <path
           d="m 62.091648,-109.17502 0.898438,0 0,7.59766 -0.898438,0 0,-7.59766"
           id="path3740" />
        <path
           d="m 64.865086,-109.17502 0.898437,0 0,7.59766 -0.898437,0 0,-7.59766"
           id="path3742" />
        <path
           d="m 72.316257,-104.53635 0,0.43946 -4.130859,0 c 0.03906,0.61849 0.224608,1.09049 0.556641,1.41601 0.335284,0.32227 0.800778,0.4834 1.396484,0.4834 0.345048,0 0.678707,-0.0423 1.000977,-0.12695 0.325516,-0.0846 0.647781,-0.21159 0.966797,-0.38086 l 0,0.84961 c -0.322271,0.13672 -0.652674,0.24088 -0.991211,0.3125 -0.338546,0.0716 -0.68197,0.10742 -1.030274,0.10742 -0.872398,0 -1.564129,-0.25391 -2.075195,-0.76172 -0.507813,-0.50781 -0.761719,-1.19466 -0.761719,-2.06055 0,-0.89517 0.240885,-1.60481 0.722656,-2.1289 0.485025,-0.52734 1.137693,-0.79101 1.958008,-0.79102 0.735673,10e-6 1.316727,0.23764 1.743164,0.71289 0.429682,0.47201 0.644526,1.11492 0.644531,1.92871 m -0.898437,-0.26367 c -0.0065,-0.49153 -0.144861,-0.88378 -0.415039,-1.17676 -0.266931,-0.29296 -0.621749,-0.43944 -1.064453,-0.43945 -0.501305,1e-5 -0.903323,0.14161 -1.206055,0.42481 -0.299481,0.2832 -0.472007,0.68197 -0.517578,1.19628 l 3.203125,-0.005"
           id="path3744" />
        <path
           d="m 76.959812,-106.20627 c -0.100915,-0.0586 -0.211592,-0.10091 -0.332031,-0.12695 -0.117191,-0.0293 -0.247399,-0.0439 -0.390625,-0.044 -0.507815,10e-6 -0.89844,0.16602 -1.171875,0.49805 -0.270184,0.32878 -0.405275,0.80241 -0.405274,1.4209 l 0,2.88086 -0.90332,0 0,-5.46875 0.90332,0 0,0.84961 c 0.188801,-0.33203 0.434569,-0.5778 0.737305,-0.73731 0.302732,-0.16275 0.67057,-0.24413 1.103516,-0.24414 0.06185,1e-5 0.130204,0.005 0.205078,0.0146 0.07487,0.007 0.157874,0.0179 0.249023,0.0342 l 0.0049,0.92285"
           id="path3746" />
      </g>
      <g
         transform="matrix(1.7020376e-8,1,-1,1.7020376e-8,0,0)"
         style="font-size:10px;font-style:normal;font-weight:normal;fill:#000000;fill-opacity:1;stroke:none;font-family:Bitstream Vera Sans"
         id="text3678">
        <path
           d="m 54.049534,-88.027145 0.986328,0 0,2.988281 3.583984,0 0,-2.988281 0.986328,0 0,7.290039 -0.986328,0 0,-3.47168 -3.583984,0 0,3.47168 -0.986328,0 0,-7.290039"
           id="path3749" />
        <path
           d="m 63.649143,-85.575974 c -0.481773,5e-6 -0.862632,0.188807 -1.142578,0.566407 -0.279949,0.374353 -0.419923,0.888675 -0.419922,1.542968 -1e-6,0.654299 0.138345,1.170249 0.415039,1.547852 0.279946,0.37435 0.662433,0.561524 1.147461,0.561523 0.478512,10e-7 0.857744,-0.188801 1.137696,-0.566406 0.279943,-0.377602 0.419917,-0.891925 0.419921,-1.542969 -4e-6,-0.647783 -0.139978,-1.160477 -0.419921,-1.538085 -0.279952,-0.380855 -0.659184,-0.571285 -1.137696,-0.57129 m 0,-0.761718 c 0.781246,5e-6 1.394853,0.253911 1.840821,0.761718 0.445958,0.507817 0.668939,1.210942 0.668945,2.109375 -6e-6,0.895185 -0.222987,1.598309 -0.668945,2.109375 -0.445968,0.507813 -1.059575,0.761719 -1.840821,0.761719 -0.784507,0 -1.399741,-0.253906 -1.845703,-0.761719 -0.442709,-0.511066 -0.664063,-1.21419 -0.664062,-2.109375 -10e-7,-0.898433 0.221353,-1.601558 0.664062,-2.109375 0.445962,-0.507807 1.061196,-0.761713 1.845703,-0.761718 m 0.458985,-1.977539 0.991211,0 0,0.986328 -0.991211,0 0,-0.986328 m -1.90918,0 0.991211,0 0,0.986328 -0.991211,0 0,-0.986328"
           id="path3751" />
        <path
           d="m 67.643284,-88.334763 0.898437,0 0,7.597657 -0.898437,0 0,-7.597657"
           id="path3753" />
        <path
           d="m 70.416721,-88.334763 0.898438,0 0,7.597657 -0.898438,0 0,-7.597657"
           id="path3755" />
        <path
           d="m 77.867893,-83.696091 0,0.439453 -4.130859,0 c 0.03906,0.618492 0.224608,1.090497 0.55664,1.416016 0.335285,0.322266 0.800779,0.483399 1.396485,0.483398 0.345048,10e-7 0.678707,-0.04232 1.000976,-0.126953 0.325516,-0.08463 0.647782,-0.211587 0.966797,-0.380859 l 0,0.849609 c -0.32227,0.136719 -0.652674,0.240886 -0.991211,0.3125 -0.338545,0.07162 -0.68197,0.107422 -1.030273,0.107422 -0.872398,0 -1.56413,-0.253906 -2.075195,-0.761719 -0.507814,-0.507811 -0.76172,-1.194659 -0.761719,-2.060546 -10e-7,-0.895179 0.240884,-1.604814 0.722656,-2.128907 0.485024,-0.527338 1.137693,-0.79101 1.958008,-0.791015 0.735673,5e-6 1.316727,0.237635 1.743164,0.71289 0.429682,0.47201 0.644526,1.114913 0.644531,1.928711 m -0.898437,-0.263672 c -0.0065,-0.491532 -0.144862,-0.883785 -0.415039,-1.176757 -0.266931,-0.292964 -0.621749,-0.439449 -1.064453,-0.439454 -0.501305,5e-6 -0.903323,0.141607 -1.206055,0.424805 -0.299481,0.283207 -0.472007,0.68197 -0.517578,1.196289 l 3.203125,-0.0049"
           id="path3757" />
        <path
           d="m 82.511448,-85.366013 c -0.100916,-0.05859 -0.211593,-0.100906 -0.332031,-0.126953 -0.117192,-0.02929 -0.2474,-0.04394 -0.390625,-0.04395 -0.507816,5e-6 -0.89844,0.16602 -1.171875,0.498047 -0.270185,0.32878 -0.405276,0.802412 -0.405274,1.420898 l 0,2.88086 -0.90332,0 0,-5.46875 0.90332,0 0,0.849609 c 0.1888,-0.332026 0.434568,-0.577794 0.737305,-0.737305 0.302731,-0.162755 0.67057,-0.244135 1.103516,-0.24414 0.06185,5e-6 0.130204,0.0049 0.205078,0.01465 0.07487,0.0065 0.157873,0.01791 0.249023,0.03418 l 0.0049,0.922851"
           id="path3759" />
      </g>
    </g>
  </g>
</svg>
