<?xml version="1.0" encoding="UTF-8" standalone="no"?>
<!-- Created with Inkscape (http://www.inkscape.org/) -->

<svg
   xmlns:dc="http://purl.org/dc/elements/1.1/"
   xmlns:cc="http://creativecommons.org/ns#"
   xmlns:rdf="http://www.w3.org/1999/02/22-rdf-syntax-ns#"
   xmlns:svg="http://www.w3.org/2000/svg"
   xmlns="http://www.w3.org/2000/svg"
   xmlns:sodipodi="http://sodipodi.sourceforge.net/DTD/sodipodi-0.dtd"
   xmlns:inkscape="http://www.inkscape.org/namespaces/inkscape"
   id="svg2"
   version="1.1"
   inkscape:version="0.47 r22583"
   width="64"
   height="64"
   sodipodi:docname="target.svg"
   inkscape:export-filename="/home/vetter/MoNav/images/target.png"
   inkscape:export-xdpi="90"
   inkscape:export-ydpi="90">
  <metadata
     id="metadata8">
    <rdf:RDF>
      <cc:Work
         rdf:about="">
        <dc:format>image/svg+xml</dc:format>
        <dc:type
           rdf:resource="http://purl.org/dc/dcmitype/StillImage" />
        <dc:title></dc:title>
      </cc:Work>
    </rdf:RDF>
  </metadata>
  <defs
     id="defs6">
    <inkscape:perspective
       sodipodi:type="inkscape:persp3d"
       inkscape:vp_x="0 : 0.5 : 1"
       inkscape:vp_y="0 : 1000 : 0"
       inkscape:vp_z="1 : 0.5 : 1"
       inkscape:persp3d-origin="0.5 : 0.33333333 : 1"
       id="perspective10" />
    <filter
       inkscape:collect="always"
       id="filter3612"
       x="-0.47238437"
       width="1.9447687"
       y="-0.39779736"
       height="1.7955947">
      <feGaussianBlur
         inkscape:collect="always"
         stdDeviation="6.2984582"
         id="feGaussianBlur3614" />
    </filter>
    <filter
       inkscape:collect="always"
       id="filter3667"
       x="-0.12"
       width="1.24"
       y="-0.12"
       height="1.24">
      <feGaussianBlur
         inkscape:collect="always"
         stdDeviation="2.25"
         id="feGaussianBlur3669" />
    </filter>
  </defs>
  <sodipodi:namedview
     pagecolor="#ffffff"
     bordercolor="#666666"
     borderopacity="1"
     objecttolerance="10"
     gridtolerance="10"
     guidetolerance="10"
     inkscape:pageopacity="0"
     inkscape:pageshadow="2"
     inkscape:window-width="1680"
     inkscape:window-height="995"
     id="namedview4"
     showgrid="true"
     inkscape:zoom="5.2149125"
     inkscape:cx="15.185527"
     inkscape:cy="22.529821"
     inkscape:window-x="0"
     inkscape:window-y="0"
     inkscape:window-maximized="1"
     inkscape:current-layer="svg2">
    <inkscape:grid
       type="xygrid"
       id="grid2839"
       empspacing="5"
       visible="true"
       enabled="true"
       snapvisiblegridlinesonly="true"
       spacingx="2px"
       spacingy="2px" />
  </sodipodi:namedview>
  <path
     id="path3616"
     d="m 32,8.75 c -12.426407,0 -22.5,10.073593 -22.5,22.5 0,12.426406 10.073593,22.5 22.5,22.5 12.426406,0 22.5,-10.073594 22.5,-22.5 C 54.5,18.823593 44.426406,8.75 32,8.75 z m 0,7.5 c 8.284272,0 15,6.715729 15,15 0,8.284271 -6.715728,15 -15,15 -8.284272,0 -15,-6.715729 -15,-15 0,-8.284271 6.715728,-15 15,-15 z"
     style="fill:none;fill-opacity:1;stroke:#000000;stroke-width:3;stroke-miterlimit:4;stroke-opacity:1;stroke-dasharray:none;stroke-dashoffset:0;filter:url(#filter3667);opacity:0.99" />
  <path
     style="fill:#ff0000;fill-opacity:1;stroke:#000080;stroke-width:3;stroke-miterlimit:4;stroke-opacity:1;stroke-dasharray:none;stroke-dashoffset:0"
     d="m 32,8.75 c -12.426407,0 -22.5,10.073593 -22.5,22.5 0,12.426406 10.073593,22.5 22.5,22.5 12.426406,0 22.5,-10.073594 22.5,-22.5 C 54.5,18.823593 44.426406,8.75 32,8.75 z m 0,7.5 c 8.284272,0 15,6.715729 15,15 0,8.284271 -6.715728,15 -15,15 -8.284272,0 -15,-6.715729 -15,-15 0,-8.284271 6.715728,-15 15,-15 z"
     id="path3613" />
</svg>
